<svg width="50" height="50" viewBox="0 0 50 50" fill="none" xmlns="http://www.w3.org/2000/svg">
<path d="M25.224 38.6458L25.0157 38.8542L24.7865 38.6458C14.8907 29.6667 8.34901 23.7292 8.34901 17.7083C8.34901 13.5417 11.474 10.4167 15.6407 10.4167C18.849 10.4167 21.974 12.5 23.0782 15.3333H26.9532C28.0573 12.5 31.1823 10.4167 34.3907 10.4167C38.5573 10.4167 41.6823 13.5417 41.6823 17.7083C41.6823 23.7292 35.1407 29.6667 25.224 38.6458ZM34.3907 6.25C30.7657 6.25 27.2865 7.9375 25.0157 10.5833C22.7448 7.9375 19.2657 6.25 15.6407 6.25C9.22401 6.25 4.18234 11.2708 4.18234 17.7083C4.18234 25.5625 11.2657 32 21.9948 41.7292L25.0157 44.4792L28.0365 41.7292C38.7657 32 45.849 25.5625 45.849 17.7083C45.849 11.2708 40.8073 6.25 34.3907 6.25Z" fill="#F1D3B3"/>
</svg>
