<svg
              width="24"
              height="24"
              viewBox="0 0 24 24"
              fill="none"
              xmlns="http://www.w3.org/2000/svg"
            >
              <path
                d="M8.0148 3.8978C5.74832 3.8978 3.92017 5.72933 3.92017 8C3.92017 10.2707 5.74832 12.1022 8.0148 12.1022C10.2813 12.1022 12.1094 10.2707 12.1094 8C12.1094 5.72933 10.2813 3.8978 8.0148 3.8978ZM8.0148 10.667C6.55014 10.667 5.35275 9.47094 5.35275 8C5.35275 6.52906 6.54658 5.33304 8.0148 5.33304C9.48302 5.33304 10.6768 6.52906 10.6768 8C10.6768 9.47094 9.47945 10.667 8.0148 10.667ZM13.232 3.73C13.232 4.26197 12.8043 4.68682 12.2769 4.68682C11.7459 4.68682 11.3219 4.2584 11.3219 3.73C11.3219 3.20161 11.7495 2.77318 12.2769 2.77318C12.8043 2.77318 13.232 3.20161 13.232 3.73ZM15.9439 4.70111C15.8833 3.41939 15.5911 2.28406 14.6539 1.34866C13.7202 0.413254 12.5869 0.120495 11.3076 0.0562312C9.98905 -0.0187437 6.03697 -0.0187437 4.71843 0.0562312C3.44264 0.116925 2.3094 0.409684 1.37217 1.34509C0.434929 2.28049 0.146274 3.41582 0.0821283 4.69753C0.00729185 6.01852 0.00729185 9.97791 0.0821283 11.2989C0.14271 12.5806 0.434929 13.7159 1.37217 14.6513C2.3094 15.5867 3.43908 15.8795 4.71843 15.9438C6.03697 16.0187 9.98905 16.0187 11.3076 15.9438C12.5869 15.8831 13.7202 15.5903 14.6539 14.6513C15.5875 13.7159 15.8798 12.5806 15.9439 11.2989C16.0187 9.97791 16.0187 6.02209 15.9439 4.70111ZM14.2405 12.7163C13.9625 13.416 13.4244 13.9551 12.7224 14.2372C11.6711 14.6549 9.17654 14.5585 8.0148 14.5585C6.85305 14.5585 4.35493 14.6513 3.30722 14.2372C2.60875 13.9587 2.07064 13.4196 1.78911 12.7163C1.37217 11.6631 1.46839 9.1639 1.46839 8C1.46839 6.8361 1.37573 4.33337 1.78911 3.28372C2.06708 2.58396 2.60519 2.04485 3.30722 1.7628C4.3585 1.34509 6.85305 1.44148 8.0148 1.44148C9.17654 1.44148 11.6747 1.34866 12.7224 1.7628C13.4208 2.04128 13.959 2.58039 14.2405 3.28372C14.6574 4.33694 14.5612 6.8361 14.5612 8C14.5612 9.1639 14.6574 11.6666 14.2405 12.7163Z"
                fill="#F0EBE3"
              />
            </svg>