<svg width="45" height="39" viewBox="0 0 45 39" fill="none" xmlns="http://www.w3.org/2000/svg">
<g clip-path="url(#clip0_135_55)">
<path d="M19.2657 14.625C19.2657 13.9785 19.5554 13.3585 20.0711 12.9014C20.5869 12.4443 21.2863 12.1875 22.0157 12.1875C22.745 12.1875 23.4445 12.4443 23.9602 12.9014C24.476 13.3585 24.7657 13.9785 24.7657 14.625V17.0625H19.2657V14.625Z" fill="#F1D3B3"/>
<path d="M33.0157 0H11.0157C9.557 0 8.15805 0.513615 7.1266 1.42785C6.09515 2.34209 5.51569 3.58207 5.51569 4.875V34.125C5.51569 35.4179 6.09515 36.6579 7.1266 37.5721C8.15805 38.4864 9.557 39 11.0157 39H33.0157C34.4744 39 35.8733 38.4864 36.9048 37.5721C37.9362 36.6579 38.5157 35.4179 38.5157 34.125V4.875C38.5157 3.58207 37.9362 2.34209 36.9048 1.42785C35.8733 0.513615 34.4744 0 33.0157 0V0ZM27.5157 14.625V17.2478C29.0007 17.6524 30.2657 18.7029 30.2657 20.2313V26.0812C30.2657 28.0702 28.1179 29.25 26.1407 29.25H17.8907C15.9134 29.25 13.7657 28.0702 13.7657 26.0812V20.2313C13.7657 18.7029 15.0307 17.6524 16.5157 17.2478V14.625C16.5157 13.3321 17.0951 12.0921 18.1266 11.1779C19.158 10.2636 20.557 9.75 22.0157 9.75C23.4744 9.75 24.8733 10.2636 25.9048 11.1779C26.9362 12.0921 27.5157 13.3321 27.5157 14.625Z" fill="#F1D3B3"/>
</g>
<defs>
<clipPath id="clip0_135_55">
<rect width="44" height="39" fill="white" transform="translate(0.015686)"/>
</clipPath>
</defs>
</svg>
