<svg
              width="24"
              height="24"
              viewBox="0 0 24 24"
              fill="none"
              xmlns="http://www.w3.org/2000/svg"
            >
              <path
                d="M15.945 2.41045C15.9002 2.28914 15.825 2.18563 15.7287 2.11298C15.6325 2.04032 15.5195 2.00177 15.404 2.00218H13.1816C12.9149 1.47187 12.5447 1.01863 12.0996 0.67758C11.6546 0.336527 11.1466 0.116809 10.6151 0.0354434C10.0835 -0.0459225 9.54268 0.0132466 9.03442 0.208369C8.52617 0.403491 8.06415 0.72933 7.68413 1.16065C7.3514 1.5304 7.08688 1.97221 6.9061 2.46013C6.72532 2.94805 6.63193 3.47223 6.63142 4.00187V4.51013C3.65604 3.62693 1.22165 0.894024 1.19972 0.860696C1.12325 0.774951 1.02756 0.714828 0.92312 0.686907C0.818681 0.658986 0.709516 0.664341 0.607569 0.702388C0.505945 0.739248 0.414942 0.806704 0.34417 0.897631C0.273398 0.988558 0.225485 1.09958 0.205491 1.21897C-0.430522 5.23501 0.6295 7.92626 1.63104 9.47602C2.13338 10.2597 2.74307 10.9461 3.43673 11.509C2.31822 12.9505 0.592948 13.7004 0.578327 13.7087C0.495824 13.7436 0.421289 13.7992 0.360275 13.8715C0.299261 13.9437 0.253341 14.0308 0.225937 14.1261C0.198533 14.2214 0.190351 14.3225 0.202 14.4219C0.213649 14.5213 0.244829 14.6164 0.293217 14.7002C0.351701 14.8002 0.571016 15.1251 1.10468 15.4334C1.76994 15.8084 2.6472 16 3.70722 16C8.86112 16 13.1743 11.4757 13.6129 5.65162L15.8207 3.14367C15.9 3.0473 15.9538 2.92729 15.9758 2.79753C15.9978 2.66778 15.9871 2.53358 15.945 2.41045ZM12.6333 4.88507C12.5315 5.00023 12.4714 5.15494 12.4652 5.31833C12.1655 10.5592 8.32014 14.6669 3.70722 14.6669C2.93231 14.6669 2.39133 14.5502 2.01118 14.4086C2.85189 13.892 4.02157 12.9921 4.78186 11.7007C4.82599 11.6225 4.8553 11.5347 4.86789 11.4429C4.88048 11.351 4.87608 11.2572 4.85497 11.1674C4.83369 11.0767 4.79604 10.9921 4.74443 10.9189C4.69282 10.8458 4.62838 10.7857 4.55524 10.7425C4.54793 10.7342 3.46597 10.0926 2.53754 8.63448C1.48483 6.98474 1.03889 4.97672 1.21434 2.66042C2.3694 3.74358 4.57717 5.50997 7.12122 5.99323C7.20523 6.00861 7.29116 6.00317 7.37316 5.97729C7.45516 5.95141 7.5313 5.90569 7.5964 5.84325C7.66005 5.77978 7.71119 5.70168 7.74647 5.61409C7.78174 5.52649 7.80036 5.43138 7.8011 5.335V4.00187C7.80218 3.3903 7.98771 2.79774 8.32657 2.32354C8.66543 1.84934 9.13702 1.52233 9.66228 1.39732C10.1875 1.27232 10.7346 1.35692 11.2116 1.63694C11.6886 1.91697 12.0667 2.3754 12.2824 2.93537C12.3291 3.05448 12.405 3.15565 12.501 3.22663C12.597 3.2976 12.709 3.33535 12.8234 3.33531H13.9931L12.6333 4.88507Z"
                fill="#F0EBE3"
              />
            </svg>